<mxfile host="Electron" modified="2021-06-11T15:28:36.541Z" agent="5.0 (Macintosh; Intel Mac OS X 10_15_7) AppleWebKit/537.36 (KHTML, like Gecko) draw.io/14.6.13 Chrome/89.0.4389.128 Electron/12.0.7 Safari/537.36" etag="c52NvEnRnLkIBLi2qFkE" version="14.6.13" type="device">
  <diagram id="-In8b_gJp782xcwDJSrX" name="Lambda Concurrency">
    <mxGraphModel dx="1106" dy="900" grid="1" gridSize="10" guides="1" tooltips="1" connect="1" arrows="1" fold="1" page="1" pageScale="1" pageWidth="1169" pageHeight="827" math="0" shadow="0">
      <root>
        <mxCell id="0" />
        <mxCell id="1" parent="0" />
        <mxCell id="Z18ZBfjKj5xelHkYDf2P-1" value="poll" style="edgeStyle=none;rounded=0;orthogonalLoop=1;jettySize=auto;html=1;" edge="1" parent="1" source="Z18ZBfjKj5xelHkYDf2P-14" target="Z18ZBfjKj5xelHkYDf2P-4">
          <mxGeometry relative="1" as="geometry" />
        </mxCell>
        <mxCell id="Z18ZBfjKj5xelHkYDf2P-2" value="" style="edgeStyle=none;rounded=0;orthogonalLoop=1;jettySize=auto;html=1;" edge="1" parent="1" source="Z18ZBfjKj5xelHkYDf2P-3" target="Z18ZBfjKj5xelHkYDf2P-6">
          <mxGeometry relative="1" as="geometry">
            <mxPoint x="698" y="245" as="targetPoint" />
          </mxGeometry>
        </mxCell>
        <mxCell id="Z18ZBfjKj5xelHkYDf2P-3" value="" style="outlineConnect=0;fontColor=#232F3E;gradientColor=none;fillColor=#D05C17;strokeColor=none;dashed=0;verticalLabelPosition=bottom;verticalAlign=top;align=center;html=1;fontSize=12;fontStyle=0;aspect=fixed;pointerEvents=1;shape=mxgraph.aws4.lambda_function;" vertex="1" parent="1">
          <mxGeometry x="597.5" y="124.5" width="46" height="46" as="geometry" />
        </mxCell>
        <mxCell id="Z18ZBfjKj5xelHkYDf2P-4" value="SQS queue" style="outlineConnect=0;fontColor=#232F3E;gradientColor=none;fillColor=#BC1356;strokeColor=none;dashed=0;verticalLabelPosition=bottom;verticalAlign=top;align=center;html=1;fontSize=12;fontStyle=0;aspect=fixed;pointerEvents=1;shape=mxgraph.aws4.queue;" vertex="1" parent="1">
          <mxGeometry x="333" y="252.5" width="58" height="34.95" as="geometry" />
        </mxCell>
        <mxCell id="Z18ZBfjKj5xelHkYDf2P-5" value="" style="edgeStyle=none;rounded=0;orthogonalLoop=1;jettySize=auto;html=1;entryX=0;entryY=0.75;entryDx=0;entryDy=0;" edge="1" parent="1" source="Z18ZBfjKj5xelHkYDf2P-6" target="Z18ZBfjKj5xelHkYDf2P-7">
          <mxGeometry relative="1" as="geometry">
            <mxPoint x="838" y="182.5" as="targetPoint" />
          </mxGeometry>
        </mxCell>
        <mxCell id="Z18ZBfjKj5xelHkYDf2P-6" value="CloudWatch&lt;br&gt;log group" style="points=[[0,0,0],[0.25,0,0],[0.5,0,0],[0.75,0,0],[1,0,0],[0,1,0],[0.25,1,0],[0.5,1,0],[0.75,1,0],[1,1,0],[0,0.25,0],[0,0.5,0],[0,0.75,0],[1,0.25,0],[1,0.5,0],[1,0.75,0]];points=[[0,0,0],[0.25,0,0],[0.5,0,0],[0.75,0,0],[1,0,0],[0,1,0],[0.25,1,0],[0.5,1,0],[0.75,1,0],[1,1,0],[0,0.25,0],[0,0.5,0],[0,0.75,0],[1,0.25,0],[1,0.5,0],[1,0.75,0]];outlineConnect=0;fontColor=#232F3E;gradientColor=#F34482;gradientDirection=north;fillColor=#BC1356;strokeColor=#ffffff;dashed=0;verticalLabelPosition=bottom;verticalAlign=top;align=center;html=1;fontSize=12;fontStyle=0;aspect=fixed;shape=mxgraph.aws4.resourceIcon;resIcon=mxgraph.aws4.cloudwatch_2;" vertex="1" parent="1">
          <mxGeometry x="716" y="183.5" width="67" height="67" as="geometry" />
        </mxCell>
        <mxCell id="Z18ZBfjKj5xelHkYDf2P-7" value="log stream 1" style="rounded=1;whiteSpace=wrap;html=1;align=left;" vertex="1" parent="1">
          <mxGeometry x="848" y="165" width="120" height="20" as="geometry" />
        </mxCell>
        <mxCell id="Z18ZBfjKj5xelHkYDf2P-8" value="" style="edgeStyle=none;rounded=0;orthogonalLoop=1;jettySize=auto;html=1;entryX=0;entryY=0.75;entryDx=0;entryDy=0;" edge="1" parent="1" source="Z18ZBfjKj5xelHkYDf2P-6" target="Z18ZBfjKj5xelHkYDf2P-9">
          <mxGeometry relative="1" as="geometry">
            <mxPoint x="783" y="227.1875" as="sourcePoint" />
            <mxPoint x="838" y="210" as="targetPoint" />
          </mxGeometry>
        </mxCell>
        <mxCell id="Z18ZBfjKj5xelHkYDf2P-9" value="log stream 1" style="rounded=1;whiteSpace=wrap;html=1;align=left;" vertex="1" parent="1">
          <mxGeometry x="848" y="192.5" width="120" height="20" as="geometry" />
        </mxCell>
        <mxCell id="Z18ZBfjKj5xelHkYDf2P-10" value="" style="edgeStyle=none;rounded=0;orthogonalLoop=1;jettySize=auto;html=1;entryX=0;entryY=0.75;entryDx=0;entryDy=0;" edge="1" parent="1" source="Z18ZBfjKj5xelHkYDf2P-6" target="Z18ZBfjKj5xelHkYDf2P-11">
          <mxGeometry relative="1" as="geometry">
            <mxPoint x="783" y="268.49749999999995" as="sourcePoint" />
            <mxPoint x="838" y="251.30999999999995" as="targetPoint" />
          </mxGeometry>
        </mxCell>
        <mxCell id="Z18ZBfjKj5xelHkYDf2P-11" value="log stream n" style="rounded=1;whiteSpace=wrap;html=1;align=left;" vertex="1" parent="1">
          <mxGeometry x="848" y="233.80999999999995" width="120" height="20" as="geometry" />
        </mxCell>
        <mxCell id="Z18ZBfjKj5xelHkYDf2P-12" value="..." style="text;html=1;strokeColor=none;fillColor=none;align=center;verticalAlign=middle;whiteSpace=wrap;rounded=0;" vertex="1" parent="1">
          <mxGeometry x="868" y="212.5" width="40" height="20" as="geometry" />
        </mxCell>
        <mxCell id="Z18ZBfjKj5xelHkYDf2P-13" value="" style="edgeStyle=none;rounded=0;orthogonalLoop=1;jettySize=auto;html=1;" edge="1" parent="1" source="Z18ZBfjKj5xelHkYDf2P-14" target="Z18ZBfjKj5xelHkYDf2P-3">
          <mxGeometry relative="1" as="geometry" />
        </mxCell>
        <mxCell id="Z18ZBfjKj5xelHkYDf2P-14" value="Lambda service" style="points=[[0,0,0],[0.25,0,0],[0.5,0,0],[0.75,0,0],[1,0,0],[0,1,0],[0.25,1,0],[0.5,1,0],[0.75,1,0],[1,1,0],[0,0.25,0],[0,0.5,0],[0,0.75,0],[1,0.25,0],[1,0.5,0],[1,0.75,0]];outlineConnect=0;fontColor=#232F3E;gradientColor=#F78E04;gradientDirection=north;fillColor=#D05C17;strokeColor=#ffffff;dashed=0;verticalLabelPosition=bottom;verticalAlign=top;align=center;html=1;fontSize=12;fontStyle=0;aspect=fixed;shape=mxgraph.aws4.resourceIcon;resIcon=mxgraph.aws4.lambda;" vertex="1" parent="1">
          <mxGeometry x="460" y="175.5" width="68" height="68" as="geometry" />
        </mxCell>
        <mxCell id="Z18ZBfjKj5xelHkYDf2P-15" value="" style="edgeStyle=none;rounded=0;orthogonalLoop=1;jettySize=auto;html=1;" edge="1" parent="1" source="Z18ZBfjKj5xelHkYDf2P-16" target="Z18ZBfjKj5xelHkYDf2P-6">
          <mxGeometry relative="1" as="geometry">
            <mxPoint x="716" y="278.56550387596894" as="targetPoint" />
          </mxGeometry>
        </mxCell>
        <mxCell id="Z18ZBfjKj5xelHkYDf2P-16" value="" style="outlineConnect=0;fontColor=#232F3E;gradientColor=none;fillColor=#D05C17;strokeColor=none;dashed=0;verticalLabelPosition=bottom;verticalAlign=top;align=center;html=1;fontSize=12;fontStyle=0;aspect=fixed;pointerEvents=1;shape=mxgraph.aws4.lambda_function;" vertex="1" parent="1">
          <mxGeometry x="597.5" y="183.5" width="46" height="46" as="geometry" />
        </mxCell>
        <mxCell id="Z18ZBfjKj5xelHkYDf2P-17" value="" style="edgeStyle=none;rounded=0;orthogonalLoop=1;jettySize=auto;html=1;" edge="1" parent="1" source="Z18ZBfjKj5xelHkYDf2P-14" target="Z18ZBfjKj5xelHkYDf2P-16">
          <mxGeometry relative="1" as="geometry">
            <mxPoint x="528" y="272.6270750988142" as="sourcePoint" />
          </mxGeometry>
        </mxCell>
        <mxCell id="Z18ZBfjKj5xelHkYDf2P-18" value="" style="edgeStyle=none;rounded=0;orthogonalLoop=1;jettySize=auto;html=1;" edge="1" parent="1" source="Z18ZBfjKj5xelHkYDf2P-19" target="Z18ZBfjKj5xelHkYDf2P-6">
          <mxGeometry relative="1" as="geometry">
            <mxPoint x="724" y="342.95155038759685" as="targetPoint" />
          </mxGeometry>
        </mxCell>
        <mxCell id="Z18ZBfjKj5xelHkYDf2P-19" value="function instances&lt;br&gt;running in parallel" style="outlineConnect=0;fontColor=#232F3E;gradientColor=none;fillColor=#D05C17;strokeColor=none;dashed=0;verticalLabelPosition=bottom;verticalAlign=top;align=center;html=1;fontSize=12;fontStyle=0;aspect=fixed;pointerEvents=1;shape=mxgraph.aws4.lambda_function;" vertex="1" parent="1">
          <mxGeometry x="597.5" y="253.80999999999995" width="46" height="46" as="geometry" />
        </mxCell>
        <mxCell id="Z18ZBfjKj5xelHkYDf2P-20" value="" style="edgeStyle=none;rounded=0;orthogonalLoop=1;jettySize=auto;html=1;" edge="1" parent="1" source="Z18ZBfjKj5xelHkYDf2P-14" target="Z18ZBfjKj5xelHkYDf2P-19">
          <mxGeometry relative="1" as="geometry">
            <mxPoint x="536" y="336.8359683794465" as="sourcePoint" />
          </mxGeometry>
        </mxCell>
        <mxCell id="Z18ZBfjKj5xelHkYDf2P-21" value="..." style="text;html=1;strokeColor=none;fillColor=none;align=center;verticalAlign=middle;whiteSpace=wrap;rounded=0;" vertex="1" parent="1">
          <mxGeometry x="600.5" y="232.5" width="40" height="20" as="geometry" />
        </mxCell>
        <mxCell id="Z18ZBfjKj5xelHkYDf2P-22" value="" style="edgeStyle=none;rounded=0;orthogonalLoop=1;jettySize=auto;html=1;exitX=1;exitY=0.5;exitDx=0;exitDy=0;" edge="1" parent="1" source="Z18ZBfjKj5xelHkYDf2P-23" target="Z18ZBfjKj5xelHkYDf2P-14">
          <mxGeometry relative="1" as="geometry">
            <mxPoint x="333" y="118.5" as="targetPoint" />
          </mxGeometry>
        </mxCell>
        <UserObject label="./1-send-async-and-sync-requests.sh" id="Z18ZBfjKj5xelHkYDf2P-23">
          <mxCell style="text;whiteSpace=wrap;html=1;fillColor=#f5f5f5;strokeColor=#666666;fontColor=#333333;" vertex="1" parent="1">
            <mxGeometry x="60" y="205.80999999999995" width="211" height="28" as="geometry" />
          </mxCell>
        </UserObject>
        <mxCell id="Z18ZBfjKj5xelHkYDf2P-24" value="client computer" style="verticalLabelPosition=bottom;html=1;verticalAlign=top;align=center;strokeColor=none;fillColor=#00BEF2;shape=mxgraph.azure.laptop;pointerEvents=1;" vertex="1" parent="1">
          <mxGeometry x="118" y="120" width="83" height="55" as="geometry" />
        </mxCell>
        <mxCell id="Z18ZBfjKj5xelHkYDf2P-25" value="" style="edgeStyle=none;rounded=0;orthogonalLoop=1;jettySize=auto;html=1;exitX=1;exitY=0.5;exitDx=0;exitDy=0;" edge="1" parent="1" source="Z18ZBfjKj5xelHkYDf2P-26" target="Z18ZBfjKj5xelHkYDf2P-4">
          <mxGeometry relative="1" as="geometry" />
        </mxCell>
        <UserObject label="./2-send-messages-to-queue.sh" id="Z18ZBfjKj5xelHkYDf2P-26">
          <mxCell style="text;whiteSpace=wrap;html=1;fillColor=#f5f5f5;strokeColor=#666666;fontColor=#333333;" vertex="1" parent="1">
            <mxGeometry x="60" y="276.5" width="211" height="28" as="geometry" />
          </mxCell>
        </UserObject>
      </root>
    </mxGraphModel>
  </diagram>
</mxfile>
